<svg xmlns="http://www.w3.org/2000/svg" viewBox="0 0 291.95935 29.22611" fill="none">
  <path
    d="M0.0595 7.8961c3.5569-.2831 7.1137-.1066 10.6706.5045 3.5568.6111 7.1137 1.658 10.6705 3.0061 3.5569 1.3481 7.1137 2.9959 10.6706 4.7339 3.5568 1.738 7.1137 3.5628 10.6705 5.2435 3.5569 1.6807 7.1137 3.2127 10.6706 4.4035 3.5568 1.1908 7.1137 2.0358 10.6705 2.4303 3.5569.3945 7.1137.335 10.6706-.1684 3.5568-.5034 7.1137-1.4521 10.6705-2.7238 3.5569-1.2717 7.1137-2.8654 10.6706-4.5781 3.5568-1.7128 7.1137-3.5413 10.6705-5.2543 3.5569-1.713 7.1137-3.3058 10.6706-4.5782 3.5568-1.2723 7.1137-2.2195 10.6705-2.7238 3.5569-.5042 7.1137-.562 10.6706-.1684 3.5568.3936 7.1137 1.2402 10.6705 2.4303 3.5569 1.1902 7.1137 2.7232 10.6706 4.4036 3.5569 1.6804 7.1137 3.5052 10.6705 5.2434 3.5569 1.7383 7.1137 3.3853 10.6706 4.734 3.5568 1.3486 7.1137 2.394 10.6705 3.006 3.5569.612 7.1137.7867 10.6706.5046 3.5568-.2822 7.1137-1.0232 10.6705-2.1269 3.5569-1.1037 7.1137-2.5696 10.6706-4.2108 3.5568-1.6412 7.1137-3.4549 10.6705-5.2112 3.5569-1.7562 7.1137-3.4508 10.6706-4.8702 3.5568-1.4194 7.1137-2.5588 10.6705-3.276 3.5569-.7172 7.1137-1.0082 10.6706-.8386"
    stroke="currentColor"
    stroke-width="1.5"
  />
  <path
    d="M291.4595 8.8348L262.4863 15.384l0-14.8839z"
    fill="currentColor"
    stroke="currentColor"
    stroke-linejoin="round"
  />
</svg>
